<svg width="189" height="25" viewBox="0 0 189 25" xmlns="http://www.w3.org/2000/svg"><g fill="none" fill-rule="evenodd"><path d="M37.541 25c-6.91 0-12.513-5.596-12.513-12.5C25.028 5.597 30.63 0 37.54 0c6.912 0 12.514 5.597 12.514 12.5 0 6.904-5.602 12.5-12.514 12.5M21.9 25c-6.912 0-12.515-5.596-12.515-12.5C9.385 5.597 14.988 0 21.9 0v25zM6.257 23.323V1.676C2.517 3.838 0 7.874 0 12.5c0 4.626 2.517 8.662 6.257 10.823" fill="#00E070"/><path d="M65.436 6.25v1.859c.584-1.24 1.654-1.859 3.208-1.859.457 0 .867.05 1.23.15.364.1.688.227.973.384l-1.09 2.736a3.188 3.188 0 0 0-.717-.353c-.264-.093-.603-.14-1.016-.14-.842 0-1.48.24-1.915.717-.435.477-.652 1.257-.652 2.34v6.666H62.57V6.25h2.867zm23.582 12.244a6.574 6.574 0 0 1-2.064-1.39 6.43 6.43 0 0 1-1.38-2.06 6.42 6.42 0 0 1-.503-2.533c0-.912.168-1.763.503-2.554a6.56 6.56 0 0 1 1.38-2.073 6.35 6.35 0 0 1 2.064-1.388 6.494 6.494 0 0 1 2.556-.503 6.64 6.64 0 0 1 1.979.29c.62.191 1.187.459 1.7.8.514.343.963.748 1.348 1.218.385.47.7.99.941 1.56l-2.588 1.09a3.63 3.63 0 0 0-1.316-1.635c-.591-.406-1.272-.609-2.042-.609-.528 0-1.017.1-1.466.3a3.78 3.78 0 0 0-1.176.811 3.638 3.638 0 0 0-.781 1.208 3.957 3.957 0 0 0-.278 1.485c0 .513.092 1 .278 1.464a3.643 3.643 0 0 0 1.968 2.019c.456.2.948.3 1.476.3.813 0 1.508-.218 2.085-.653a3.965 3.965 0 0 0 1.295-1.677l2.588 1.111a6.814 6.814 0 0 1-.941 1.581 6.11 6.11 0 0 1-3.037 2.062 6.891 6.891 0 0 1-2.033.289 6.378 6.378 0 0 1-2.556-.513m12.457-15.556v4.808a4.6 4.6 0 0 1 1.594-1.282c.635-.314 1.351-.47 2.15-.47 1.554 0 2.77.47 3.647 1.41.877.94 1.316 2.25 1.316 3.932v7.414h-2.952v-7.094c0-.983-.236-1.755-.706-2.318-.47-.563-1.177-.844-2.118-.844a2.9 2.9 0 0 0-1.134.224c-.356.15-.666.367-.93.652a3.02 3.02 0 0 0-.62 1.068c-.15.427-.225.912-.225 1.453v6.86h-2.91V2.937h2.888zm18.223 13.12a3.47 3.47 0 0 0 1.177-.834 4.11 4.11 0 0 0 .78-1.239 3.96 3.96 0 0 0 .29-1.517c0-.527-.097-1.026-.29-1.496a3.98 3.98 0 0 0-.78-1.228 3.546 3.546 0 0 0-1.177-.823 3.703 3.703 0 0 0-1.497-.299c-.528 0-1.023.1-1.487.299-.463.2-.866.47-1.208.812-.343.342-.61.748-.803 1.218-.192.47-.289.976-.289 1.517 0 .542.097 1.05.29 1.528.192.477.46.89.802 1.24a3.75 3.75 0 0 0 2.695 1.121c.542 0 1.041-.1 1.497-.299m-4.203 2.51a6.146 6.146 0 0 1-1.979-1.27 6.284 6.284 0 0 1-1.411-2.041c-.357-.805-.535-1.72-.535-2.746 0-1.04.174-1.962.524-2.767a6.245 6.245 0 0 1 1.39-2.041 5.975 5.975 0 0 1 1.99-1.272 6.284 6.284 0 0 1 2.3-.437c.826 0 1.59.156 2.288.47a4.788 4.788 0 0 1 1.733 1.282V6.25h2.888v12.5h-2.888v-1.624a4.741 4.741 0 0 1-1.754 1.378 5.362 5.362 0 0 1-2.31.503 6 6 0 0 1-2.236-.438M129.113 6.25v1.859c.585-1.24 1.655-1.859 3.209-1.859.456 0 .866.05 1.23.15.364.1.688.227.973.384l-1.09 2.736a3.188 3.188 0 0 0-.717-.353c-.264-.093-.603-.14-1.016-.14-.842 0-1.48.24-1.915.717-.435.477-.652 1.257-.652 2.34v6.666h-2.888V6.25h2.866zm15.514 7.735c-.192.47-.453.883-.781 1.239a3.47 3.47 0 0 1-1.177.833c-.456.2-.955.3-1.497.3a3.76 3.76 0 0 1-2.696-1.122 3.75 3.75 0 0 1-.801-1.24 4.04 4.04 0 0 1-.29-1.527c0-.542.097-1.047.29-1.518.192-.47.46-.876.801-1.218a3.847 3.847 0 0 1 1.21-.812c.463-.2.958-.299 1.486-.299.542 0 1.041.1 1.497.3.457.198.849.473 1.177.822a3.978 3.978 0 0 1 1.07 2.725c0 .54-.097 1.046-.289 1.517zm2.98-7.735h-2.889l.009 1.583a4.894 4.894 0 0 0-1.74-1.348 5.232 5.232 0 0 0-2.292-.49 6.288 6.288 0 0 0-2.297.45 5.974 5.974 0 0 0-1.983 1.282 6.235 6.235 0 0 0-1.38 2.048c-.345.806-.515 1.73-.51 2.77.006 1.025.19 1.94.55 2.742a6.29 6.29 0 0 0 1.422 2.034c.588.552 1.25.973 1.986 1.26a5.984 5.984 0 0 0 2.237.427 5.328 5.328 0 0 0 2.33-.525 4.755 4.755 0 0 0 1.746-1.42l.008.006c.023 4.54-1.684 5.25-4.992 5.267.003.838.01 1.978.013 2.655.868-.004 1.448.022 2.42 0 3.148-.07 5.376-3.447 5.361-6.239V6.25zm5.708 2.992a3.72 3.72 0 0 0-1.337 1.859h7.102c-.214-.841-.628-1.478-1.24-1.913-.614-.434-1.37-.652-2.268-.652-.87 0-1.622.236-2.257.706zm2.364 9.765c-.984 0-1.883-.167-2.696-.503a6.223 6.223 0 0 1-2.085-1.378 6.218 6.218 0 0 1-1.348-2.061 6.667 6.667 0 0 1-.481-2.533c0-.912.167-1.766.502-2.564a6.392 6.392 0 0 1 1.38-2.073 6.585 6.585 0 0 1 2.064-1.389 6.378 6.378 0 0 1 2.557-.513c.927 0 1.786.161 2.578.482.791.32 1.472.768 2.043 1.346a6.227 6.227 0 0 1 1.337 2.04c.32.784.48 1.639.48 2.565v1.089h-10.182c.2.884.635 1.596 1.305 2.137.67.541 1.519.812 2.546.812h1.184v2.543h-1.184zM75.168 9.215a3.69 3.69 0 0 0-1.326 1.845h7.044c-.212-.834-.622-1.466-1.23-1.897-.609-.432-1.359-.647-2.25-.647-.862 0-1.609.233-2.238.7m-.329 9.188a6.175 6.175 0 0 1-2.069-1.368 6.173 6.173 0 0 1-1.337-2.045 6.615 6.615 0 0 1-.477-2.512 6.5 6.5 0 0 1 .498-2.543 6.345 6.345 0 0 1 1.37-2.056 6.525 6.525 0 0 1 2.047-1.378 6.327 6.327 0 0 1 2.535-.508c.92 0 1.772.159 2.557.476a5.95 5.95 0 0 1 2.027 1.336 6.162 6.162 0 0 1 1.326 2.024c.318.777.477 1.625.477 2.544v1.08h-10.1c.198.877.63 1.583 1.295 2.12.664.537 1.506.805 2.525.805.806 0 1.506-.198 2.1-.593a3.669 3.669 0 0 0 1.337-1.59l2.355 1.357a6.423 6.423 0 0 1-2.26 2.427c-.969.614-2.146.922-3.532.922-.976 0-1.868-.166-2.674-.498m84.969-1.589c.23-.234.542-.351.937-.351.396 0 .706.117.93.35.224.235.336.544.336.93 0 .373-.115.678-.344.912-.23.234-.542.35-.937.35-.396 0-.706-.116-.93-.35-.224-.234-.335-.539-.335-.913 0-.385.114-.694.343-.928m6.649 2.06a3.204 3.204 0 0 1-1.722-1.725 3.206 3.206 0 0 1-.252-1.266 3.267 3.267 0 0 1 .941-2.313 3.167 3.167 0 0 1 1.033-.695 3.245 3.245 0 0 1 1.278-.251 3.323 3.323 0 0 1 1.84.545c.256.171.48.374.673.609.193.235.35.495.47.78l-1.293.544a1.816 1.816 0 0 0-.658-.817 1.76 1.76 0 0 0-1.021-.304c-.264 0-.508.05-.733.15a1.819 1.819 0 0 0-.978 1.01 1.98 1.98 0 0 0-.14.742c0 .256.047.5.14.731a1.82 1.82 0 0 0 .983 1.01c.229.1.475.15.738.15.407 0 .754-.109 1.043-.326a1.97 1.97 0 0 0 .647-.839l1.294.556a3.397 3.397 0 0 1-.47.79c-.193.242-.416.45-.669.625a3.08 3.08 0 0 1-.85.406 3.454 3.454 0 0 1-1.016.144c-.456 0-.883-.085-1.278-.256m9.001-1.25a1.842 1.842 0 0 0 .962-1.01c.093-.231.14-.475.14-.732 0-.263-.047-.51-.14-.742a1.836 1.836 0 0 0-.962-1.01c-.221-.1-.46-.15-.717-.15-.256 0-.497.05-.722.15a1.76 1.76 0 0 0-.577.406 1.973 1.973 0 0 0-.519 1.346c0 .257.046.5.14.733.092.23.218.432.379.603a1.762 1.762 0 0 0 1.3.555c.256 0 .495-.05.716-.15m-1.984 1.256a3.175 3.175 0 0 1-1.032-.694 3.285 3.285 0 0 1-.69-1.037 3.213 3.213 0 0 1-.252-1.266 3.28 3.28 0 0 1 .941-2.313 3.224 3.224 0 0 1 2.3-.946c.45 0 .87.085 1.262.252a3.251 3.251 0 0 1 1.728 1.73c.167.396.251.822.251 1.277a3.235 3.235 0 0 1-1.979 2.997 3.17 3.17 0 0 1-1.262.251c-.449 0-.872-.083-1.267-.25m6.701-6.128v.727c.2-.264.451-.472.754-.625.303-.153.647-.23 1.032-.23.493 0 .908.095 1.247.283.338.189.6.455.786.796a2.36 2.36 0 0 1 .85-.785 2.44 2.44 0 0 1 1.203-.294c.842 0 1.476.233 1.904.7.428.466.641 1.106.641 1.918v3.76h-1.475V15.36c0-.456-.115-.817-.343-1.085-.228-.266-.567-.4-1.016-.4-.392 0-.72.135-.984.406-.263.27-.395.68-.395 1.229v3.493h-1.466v-3.686c0-.448-.11-.8-.331-1.057-.221-.257-.55-.385-.984-.385-.407 0-.743.14-1.01.417-.268.278-.402.694-.402 1.25v3.461h-1.444v-6.25h1.433z" fill="#FFF"/></g></svg>