<svg width="210" height="28" viewBox="0 0 210 28" fill="none" xmlns="http://www.w3.org/2000/svg"><path fill-rule="evenodd" clip-rule="evenodd" d="M24.365 28c-7.69 0-13.923-6.268-13.923-14S16.675 0 24.365 0v28zm17.403 0c-7.69 0-13.923-6.268-13.923-14S34.08 0 41.768 0c7.69 0 13.923 6.268 13.923 14s-6.234 14-13.923 14zM6.961 1.877v24.245A14.004 14.004 0 0 1 0 14C0 8.819 2.8 4.298 6.961 1.877z" fill="#00E070"/><path fill-rule="evenodd" clip-rule="evenodd" d="M112.9 3.29v5.385a5.124 5.124 0 0 1 1.773-1.436c.706-.35 1.503-.526 2.392-.526 1.729 0 3.082.526 4.057 1.58.977 1.052 1.464 2.52 1.464 4.403V21h-3.284v-7.945c0-1.1-.262-1.966-.785-2.597-.524-.63-1.31-.945-2.357-.945-.444 0-.864.084-1.261.251a2.95 2.95 0 0 0-1.036.73 3.397 3.397 0 0 0-.69 1.197 4.95 4.95 0 0 0-.249 1.627V21h-3.237V3.29h3.213zM96.743 19.158a7.31 7.31 0 0 0 2.297 1.556c.88.383 1.828.575 2.844.575.809 0 1.563-.108 2.261-.324a6.807 6.807 0 0 0 1.892-.909 6.885 6.885 0 0 0 1.487-1.4 7.64 7.64 0 0 0 1.048-1.77l-2.88-1.246a4.436 4.436 0 0 1-1.44 1.88c-.643.486-1.416.73-2.321.73a4.029 4.029 0 0 1-1.642-.336 4.073 4.073 0 0 1-2.19-2.261 4.397 4.397 0 0 1-.309-1.64c0-.59.103-1.145.31-1.663.206-.518.496-.97.868-1.352.373-.383.81-.686 1.31-.91a3.947 3.947 0 0 1 1.63-.335c.857 0 1.614.227 2.272.682a4.056 4.056 0 0 1 1.464 1.831l2.88-1.22a7.213 7.213 0 0 0-1.047-1.748 6.847 6.847 0 0 0-1.499-1.363 7.267 7.267 0 0 0-1.893-.898 7.338 7.338 0 0 0-2.201-.323 7.182 7.182 0 0 0-2.844.562 7.062 7.062 0 0 0-2.297 1.556 7.35 7.35 0 0 0-1.535 2.321 7.298 7.298 0 0 0-.56 2.86c0 1.005.187 1.95.56 2.836a7.204 7.204 0 0 0 1.535 2.31zM72.803 9.082V7h-3.19v14h3.213v-7.466c0-1.213.242-2.086.726-2.621.484-.535 1.194-.802 2.13-.802.46 0 .837.052 1.13.156.294.104.56.235.798.395l1.214-3.063A4.933 4.933 0 0 0 76.372 7c-1.73 0-2.92.694-3.57 2.082zm61.681 7.97c-.365.398-.802.71-1.31.933a4.093 4.093 0 0 1-1.666.335 4.182 4.182 0 0 1-2.999-1.256 4.218 4.218 0 0 1-.892-1.389 4.559 4.559 0 0 1-.321-1.71c0-.607.107-1.174.321-1.7a4.112 4.112 0 0 1 2.237-2.274 4.121 4.121 0 0 1 1.654-.334c.603 0 1.159.111 1.666.334.508.224.945.531 1.31.922.364.39.654.85.868 1.376a4.39 4.39 0 0 1 .322 1.675c0 .607-.107 1.173-.322 1.7a4.61 4.61 0 0 1-.868 1.387zm-8.188 2.321a6.841 6.841 0 0 0 2.202 1.424 6.64 6.64 0 0 0 2.487.49 5.93 5.93 0 0 0 2.57-.562 5.277 5.277 0 0 0 1.951-1.544v1.82h3.214V7h-3.214v1.674a5.33 5.33 0 0 0-1.927-1.436 6.116 6.116 0 0 0-2.547-.526c-.872 0-1.725.163-2.558.49a6.65 6.65 0 0 0-2.214 1.424c-.642.623-1.158 1.384-1.547 2.286-.388.902-.583 1.934-.583 3.099 0 1.149.199 2.174.596 3.076.396.9.919 1.663 1.57 2.285zM143.649 7v2.082C144.3 7.694 145.49 7 147.219 7c.508 0 .964.056 1.369.168.404.111.765.255 1.082.43l-1.213 3.064a3.535 3.535 0 0 0-.798-.395c-.293-.104-.67-.156-1.13-.156-.936 0-1.646.267-2.13.802s-.726 1.408-.726 2.62V21h-3.213V7h3.189zm16.392 10.05c.365-.398.654-.86.868-1.387a4.472 4.472 0 0 0 .322-1.7 4.4 4.4 0 0 0-.322-1.674 4.44 4.44 0 0 0-.868-1.377 3.934 3.934 0 0 0-1.31-.921 4.085 4.085 0 0 0-1.666-.335c-.587 0-1.138.111-1.654.335a4.296 4.296 0 0 0-1.345.91 4.11 4.11 0 0 0-.891 1.363 4.451 4.451 0 0 0-.322 1.7c0 .606.107 1.176.322 1.71.214.535.511.998.891 1.389a4.2 4.2 0 0 0 1.345.921 4.122 4.122 0 0 0 1.654.335c.603 0 1.159-.112 1.666-.335a3.862 3.862 0 0 0 1.31-.933zm.97-10.05h3.213v14.003c.016 3.126-2.462 6.909-5.964 6.987-.654.015-1.148.01-1.65.005h-.001c-.328-.003-.66-.007-1.042-.005l-.004-.728-.011-2.246c3.681-.02 5.58-.814 5.555-5.899l-.009-.006a5.301 5.301 0 0 1-1.944 1.59 5.893 5.893 0 0 1-2.591.588 6.641 6.641 0 0 1-2.49-.478 6.821 6.821 0 0 1-2.208-1.412c-.654-.619-1.182-1.378-1.583-2.277-.401-.9-.605-1.924-.611-3.072-.006-1.165.183-2.199.567-3.103.384-.903.896-1.667 1.535-2.293a6.652 6.652 0 0 1 2.206-1.436 6.952 6.952 0 0 1 2.556-.504 5.788 5.788 0 0 1 2.55.55 5.448 5.448 0 0 1 1.935 1.509L161.011 7zm9.564 3.35a4.163 4.163 0 0 0-1.487 2.083h7.901c-.238-.942-.698-1.655-1.38-2.142-.682-.487-1.523-.73-2.523-.73-.968 0-1.804.263-2.511.79zm2.63 10.938c-1.094 0-2.094-.188-2.998-.563a6.912 6.912 0 0 1-2.321-1.544 6.972 6.972 0 0 1-1.499-2.309 7.515 7.515 0 0 1-.536-2.836 7.4 7.4 0 0 1 .559-2.872 7.165 7.165 0 0 1 1.536-2.321 7.324 7.324 0 0 1 2.296-1.556 7.058 7.058 0 0 1 2.844-.574 7.52 7.52 0 0 1 2.868.539 6.657 6.657 0 0 1 2.273 1.507 6.966 6.966 0 0 1 1.488 2.285c.357.878.535 1.836.535 2.873v1.22h-11.329c.223.99.706 1.787 1.452 2.393.746.607 1.69.91 2.832.91h1.318v2.848h-1.318zm-91.05-8.901a4.133 4.133 0 0 1 1.475-2.066c.701-.522 1.531-.783 2.491-.783.992 0 1.826.241 2.503.724.676.483 1.133 1.19 1.369 2.125h-7.838zm-1.192 6.694a6.868 6.868 0 0 0 2.302 1.531c.897.372 1.888.558 2.974.558 1.543 0 2.853-.344 3.93-1.033a7.175 7.175 0 0 0 2.515-2.718l-2.62-1.52a4.103 4.103 0 0 1-1.487 1.781c-.662.443-1.44.665-2.338.665-1.133 0-2.07-.3-2.809-.902-.74-.601-1.22-1.393-1.44-2.374h11.237v-1.21c0-1.03-.177-1.979-.531-2.85a6.905 6.905 0 0 0-1.475-2.266 6.618 6.618 0 0 0-2.255-1.496 7.464 7.464 0 0 0-2.845-.534c-1.007 0-1.947.19-2.821.57a7.256 7.256 0 0 0-2.278 1.542 7.11 7.11 0 0 0-1.523 2.303 7.323 7.323 0 0 0-.555 2.849c0 .997.177 1.935.531 2.813a6.92 6.92 0 0 0 1.488 2.29zm96.837-.249c.254-.262.602-.393 1.042-.393.441 0 .786.131 1.034.393.25.262.374.61.374 1.04 0 .42-.127.76-.382 1.022s-.603.394-1.043.394c-.44 0-.785-.132-1.034-.394s-.374-.602-.374-1.022c0-.43.128-.777.383-1.04zm6.249 1.53a3.65 3.65 0 0 0 1.148.778c.44.191.914.287 1.422.287.405 0 .781-.054 1.131-.162a3.414 3.414 0 0 0 1.689-1.154c.214-.271.389-.566.524-.886l-1.44-.622a2.219 2.219 0 0 1-.72.94c-.321.243-.708.364-1.16.364a2.01 2.01 0 0 1-.821-.167 2.042 2.042 0 0 1-1.095-1.13 2.197 2.197 0 0 1-.155-.82c0-.296.052-.573.155-.832a2.04 2.04 0 0 1 1.089-1.131c.25-.111.521-.167.815-.167.429 0 .807.113 1.136.34.33.228.573.533.732.916l1.44-.61a3.57 3.57 0 0 0-.524-.874 3.421 3.421 0 0 0-.749-.682 3.63 3.63 0 0 0-2.047-.61c-.508 0-.982.094-1.422.281a3.54 3.54 0 0 0-1.148.778 3.65 3.65 0 0 0-1.048 2.59 3.623 3.623 0 0 0 1.048 2.573zm11.162-.622a2.047 2.047 0 0 0 1.071-1.13c.103-.26.155-.533.155-.82 0-.295-.052-.573-.155-.832a2.039 2.039 0 0 0-1.071-1.13 1.904 1.904 0 0 0-.797-.168c-.286 0-.553.056-.803.167-.25.112-.465.263-.643.455a2.214 2.214 0 0 0-.577 1.508c0 .287.051.56.155.82.103.258.244.484.422.675.178.192.393.343.643.455.25.111.517.167.803.167.286 0 .551-.056.797-.167zm-2.207 1.406a3.525 3.525 0 0 1-1.148-.778 3.688 3.688 0 0 1-.768-1.16 3.623 3.623 0 0 1-.28-1.418 3.654 3.654 0 0 1 1.048-2.59 3.562 3.562 0 0 1 2.558-1.06c.5 0 .968.094 1.404.281.436.187.819.447 1.149.778a3.63 3.63 0 0 1 1.053 2.59 3.634 3.634 0 0 1-1.053 2.579c-.33.331-.713.59-1.149.778a3.52 3.52 0 0 1-1.404.28c-.5 0-.97-.093-1.41-.28zm7.456-6.049v-.813h-1.595v7h1.607v-3.877c0-.623.148-1.09.446-1.4a1.491 1.491 0 0 1 1.125-.467c.483 0 .848.144 1.094.431.246.287.369.682.369 1.184v4.128h1.631v-3.912c0-.614.146-1.073.439-1.376a1.464 1.464 0 0 1 1.096-.455c.499 0 .876.15 1.13.449.254.3.381.704.381 1.214v4.08h1.642v-4.211c0-.91-.238-1.626-.714-2.148-.476-.523-1.182-.784-2.118-.784a2.649 2.649 0 0 0-2.285 1.208 2.195 2.195 0 0 0-.875-.89c-.376-.212-.838-.318-1.386-.318-.428 0-.811.086-1.148.257a2.386 2.386 0 0 0-.839.7z" fill="#00373D"/></svg>